<svg width="35" height="40px" viewBox="0 0 40 40" xmlns="http://www.w3.org/2000/svg" xmlns:xlink="http://www.w3.org/1999/xlink"><g id="qr-code-" stroke="none" stroke-width="1" fill="none" fill-rule="evenodd"><g id="\u0639\u0631\u0636-\u0645\u0644\u062E\u0635-\u0627\u0644\u0637\u0644\u0628" transform="translate(-1325.000000, -246.000000)" fill="#145D58" fill-rule="nonzero"><g id="Group-4" transform="translate(1325.000000, 246.000000)"><path d="M1.8404908,38.404908 L1.47239264,38.4662577 L0,39.9386503 C4.72392638,38.9570552 11.595092,38.2822086 19.202454,38.2822086 C26.809816,38.2822086 33.6809816,38.9570552 38.404908,39.9386503 L40,38.3435583 C35.0920245,37.3006135 28.2208589,36.7484663 20.9815951,36.7484663 C13.7423313,36.809816 6.74846626,37.4233129 1.8404908,38.404908" id="Path"></path><path d="M1.47239264,38.5889571 L1.53374233,38.2208589 C2.57668712,33.3128834 3.19018405,26.3190184 3.19018405,19.0184049 C3.19018405,11.7791411 2.57668712,4.90797546 1.59509202,0 L0,1.59509202 C0.981595092,6.3190184 1.65644172,13.190184 1.65644172,20.797546 C1.65644172,28.404908 0.981595092,35.2760736 0,40 L1.47239264,38.5889571 Z" id="Path"></path><path d="M39.8773006,0.0613496933 C34.9693252,1.04294479 28.1595092,1.65644172 20.9815951,1.65644172 C13.8650307,1.65644172 6.99386503,1.10429448 2.08588957,0.0613496933 C3.06748466,4.96932515 3.6809816,11.8404908 3.6809816,18.9570552 C3.6809816,26.1349693 3.12883436,32.9447853 2.08588957,37.8527607 C6.99386503,36.8711656 13.8650307,36.2576687 20.9815951,36.2576687 C28.1595092,36.2576687 34.9693252,36.809816 39.8773006,37.8527607 C38.8957055,32.9447853 38.2822086,26.1349693 38.2822086,18.9570552 C38.3435583,11.8404908 38.8957055,4.96932515 39.8773006,0.0613496933 Z M27.2392638,9.32515337 C27.3006135,9.38650307 27.3006135,9.38650307 27.3006135,9.50920245 L27.3006135,9.63190184 L27.3619632,9.63190184 C27.3619632,9.63190184 27.8527607,9.69325153 27.8527607,10.3680982 L27.8527607,10.4294479 L27.9141104,10.4294479 C27.9141104,10.4294479 28.3435583,10.6748466 28.404908,11.0429448 C28.404908,11.1656442 28.404908,11.2269939 28.3435583,11.2883436 C28.2822086,11.2883436 28.0981595,11.2883436 27.9754601,11.2883436 C27.6687117,11.2883436 27.4233129,11.2269939 27.3619632,11.1042945 L27.3619632,11.1042945 L27.3619632,11.1042945 C27.3619632,11.1042945 26.8711656,10.9202454 26.3803681,10.5521472 L26.3190184,10.4907975 L26.2576687,10.4907975 C26.2576687,10.4907975 26.0736196,10.6134969 25.8895706,10.6134969 C25.7055215,10.6134969 25.4601227,10.4907975 25.2147239,10.3680982 L25.1533742,10.3067485 L25.0920245,10.3680982 C25.0920245,10.3680982 25.0306748,10.4294479 24.9079755,10.4907975 L24.8466258,10.4907975 L24.8466258,10.4907975 L24.8466258,10.4907975 C24.6625767,10.4907975 24.4785276,10.4294479 24.2331288,10.2453988 L24.1717791,10.2453988 L24.1104294,10.3680982 C24.1104294,10.3680982 23.9877301,10.6134969 23.3742331,10.6134969 C23.2515337,10.6134969 23.190184,10.6134969 23.1288344,10.6134969 C23.006135,10.5521472 22.3312883,10.3067485 21.6564417,10.1840491 L21.4110429,10.1226994 L21.4110429,10.1226994 C21.6564417,10.0613497 21.8404908,9.93865031 22.0858896,9.87730061 C22.392638,9.75460123 22.7607362,9.69325153 22.7607362,9.69325153 L22.7607362,9.69325153 C23.3128834,9.44785276 23.4355828,9.14110429 23.4969325,8.95705521 C23.7423313,8.95705521 23.8650307,8.89570552 23.9877301,8.83435583 L23.9877301,8.83435583 C23.9877301,8.83435583 24.3558282,8.65030675 24.7239264,8.65030675 C24.8466258,8.65030675 24.9693252,8.71165644 24.9693252,8.77300613 C25.0306748,8.83435583 25.0306748,8.89570552 25.0306748,8.95705521 L25.0306748,9.14110429 L25.1533742,9.0797546 C25.1533742,9.0797546 25.6441718,8.83435583 26.0122699,8.83435583 C26.1349693,8.83435583 26.196319,8.83435583 26.2576687,8.89570552 C26.2576687,8.95705521 26.2576687,9.01840491 26.2576687,9.0797546 L26.196319,9.20245399 L26.3190184,9.20245399 C26.3190184,9.20245399 26.5030675,9.14110429 26.6257669,9.14110429 C26.993865,9.14110429 27.1779141,9.20245399 27.2392638,9.32515337 Z M24.7852761,14.4785276 C24.7852761,14.4785276 25.0306748,14.8466258 24.601227,15.2147239 L24.5398773,15.2760736 L24.5398773,15.3374233 C24.5398773,15.4601227 24.601227,15.8282209 24.4785276,16.0122699 L24.2944785,16.1349693 C24.0490798,15.8895706 23.8650307,15.5828221 23.8650307,15.398773 L23.8650307,15.398773 L23.8650307,15.398773 C23.8650307,15.398773 23.6196319,14.9693252 23.6196319,14.4171779 L23.6196319,14.2944785 L23.5582822,14.2944785 C23.5582822,14.2944785 23.1288344,14.0490798 23.1288344,13.4969325 L23.1288344,13.4355828 L23.0674847,13.4355828 C23.0674847,13.4355828 22.7607362,13.4355828 22.6380368,12.6993865 L22.6380368,12.5766871 L22.5153374,12.6380368 C22.5153374,12.6380368 22.2699387,12.7607362 21.8404908,12.0858896 C21.7791411,11.9631902 21.5337423,11.2269939 21.2269939,10.6748466 C21.8404908,11.1042945 22.5766871,11.9631902 22.5766871,11.9631902 L22.5766871,11.9631902 C22.8220859,12.208589 23.1288344,12.2699387 23.3128834,12.2699387 C23.4969325,12.2699387 23.5582822,12.208589 23.6196319,12.1472393 C23.6809816,12.2699387 23.803681,12.392638 23.8650307,12.392638 L23.803681,12.4539877 L23.6809816,12.5153374 L23.803681,12.5766871 C24.0490798,12.7607362 24.5398773,13.0674847 24.4785276,13.2515337 L24.3558282,13.3742331 L24.2331288,13.4355828 L24.3558282,13.5582822 C24.4785276,13.6809816 24.7852761,14.0490798 24.7852761,14.2944785 L24.7852761,14.4785276 L24.7852761,14.4785276 L24.7852761,14.4785276 Z M17.607362,16.1349693 L17.4233129,16.0122699 C17.2392638,15.7668712 17.3619632,15.3374233 17.3619632,15.3374233 L17.3619632,15.2760736 L17.3006135,15.2147239 C16.9325153,14.9079755 17.1165644,14.4785276 17.1165644,14.4785276 L17.1779141,14.4171779 L17.1165644,14.3558282 L16.993865,14.1717791 C16.993865,13.9263804 17.3006135,13.5582822 17.4233129,13.4355828 L17.5460123,13.3128834 L17.4233129,13.2515337 L17.3006135,13.1288344 C17.3006135,12.9447853 17.6687117,12.6380368 17.9754601,12.4539877 L18.0981595,12.392638 L17.9754601,12.3312883 L17.9141104,12.2699387 C17.9754601,12.208589 18.0368098,12.0858896 18.1595092,12.0245399 C18.2208589,12.0858896 18.3435583,12.1472393 18.4662577,12.1472393 C18.7116564,12.1472393 18.9570552,12.0245399 19.202454,11.8404908 L19.202454,11.8404908 C19.202454,11.8404908 19.9386503,10.9815951 20.5521472,10.5521472 C20.3067485,11.1042945 20,11.8404908 19.9386503,11.9631902 C19.5705521,12.6380368 19.2638037,12.5153374 19.2638037,12.5153374 L19.1411043,12.4539877 L19.1411043,12.5766871 C19.0797546,13.2515337 18.7116564,13.3128834 18.7116564,13.3128834 L18.6503067,13.3128834 L18.6503067,13.4355828 C18.6503067,14.1104294 18.2208589,14.2331288 18.2208589,14.2331288 L18.1595092,14.2331288 L18.1595092,14.2944785 C18.1595092,14.8466258 17.9141104,15.2760736 17.9141104,15.2760736 L17.9141104,15.2760736 L17.9141104,15.2760736 C18.0368098,15.5828221 17.791411,15.8895706 17.607362,16.1349693 Z M14.8466258,13.7423313 C14.6625767,13.006135 15.0920245,12.6993865 15.0920245,12.6380368 L15.1533742,12.5766871 L15.1533742,12.5153374 C15.0920245,12.392638 15.0920245,12.2699387 15.1533742,12.1472393 C15.3374233,11.7791411 15.9509202,11.595092 15.9509202,11.595092 L16.0736196,11.595092 L16.0122699,11.4723926 C15.9509202,11.3496933 15.9509202,11.2269939 16.0122699,11.2269939 C16.196319,10.9815951 16.7484663,10.9202454 16.993865,10.9202454 L17.1165644,10.9202454 L17.0552147,10.797546 L17.0552147,10.6748466 L17.1165644,10.6748466 C17.3006135,10.6748466 17.4846626,10.6134969 17.7300613,10.4294479 C17.8527607,10.5521472 17.9754601,10.6748466 18.5276074,10.6748466 C18.6503067,10.6748466 18.7730061,10.6748466 18.8343558,10.6748466 L18.8343558,10.6748466 C18.8343558,10.6748466 19.9386503,10.2453988 20.5521472,10.1840491 L20.6748466,10.1840491 L20.6748466,10.1840491 L20.4907975,10.3067485 L20.2453988,10.4907975 C19.6932515,10.9202454 19.0797546,11.6564417 19.0184049,11.7177914 C18.7730061,11.9018405 18.5276074,11.9631902 18.3435583,11.9631902 C18.1595092,11.9631902 18.0981595,11.8404908 18.0981595,11.8404908 L18.0368098,11.7791411 L18.0981595,11.8404908 L18.0368098,11.9631902 C17.9141104,12.1472393 17.8527607,12.208589 17.791411,12.3312883 L17.7300613,12.392638 C17.5460123,12.5766871 17.4846626,12.5766871 17.4233129,12.5766871 L17.3006135,12.5153374 L17.2392638,12.4539877 L17.1779141,12.5766871 C16.8711656,13.2515337 16.4417178,13.3128834 16.3803681,13.3128834 L16.3190184,13.3128834 L16.2576687,13.3128834 L16.2576687,13.3742331 C15.9509202,14.1104294 15.5214724,14.4785276 15.5214724,14.4785276 L15.5214724,14.4785276 L15.5214724,14.4785276 C15.398773,14.7239264 14.9079755,15.0306748 14.7239264,15.0920245 C14.2944785,14.601227 14.8466258,13.803681 14.8466258,13.7423313 L14.8466258,13.7423313 L14.8466258,13.7423313 Z M18.5276074,22.8220859 L20.6748466,22.8220859 L20.2453988,20.8588957 L20.5521472,20.5521472 L20.1226994,18.7730061 L20.4907975,18.5889571 L20,16.6257669 L20.4294479,16.3190184 L20.0613497,14.6625767 L20.4907975,14.4171779 L20.2453988,12.9447853 L20.5521472,12.6993865 L20.4907975,11.1042945 L20.4907975,11.1042945 C20.4907975,11.0429448 20.6748466,10.6134969 20.9815951,10.3067485 C21.3496933,10.6134969 21.4723926,11.1042945 21.4723926,11.1042945 L21.4110429,12.6993865 L21.7177914,12.9447853 L21.4723926,14.4171779 L21.9018405,14.6625767 L21.5337423,16.3190184 L21.9631902,16.6257669 L21.5337423,18.5889571 L21.8404908,18.7730061 L21.4110429,20.5521472 L21.7177914,20.8588957 L21.4110429,22.8220859 L23.4969325,22.8220859 C23.4969325,22.8220859 23.7423313,22.9447853 23.6809816,23.1288344 C23.5582822,23.3742331 22.4539877,24.4171779 22.4539877,24.3558282 C22.3312883,24.2944785 22.3312883,23.8650307 22.2699387,23.803681 C22.208589,23.7423313 21.7791411,24.2331288 21.5337423,24.3558282 C21.5337423,24.3558282 21.2883436,24.1104294 20.9815951,23.9263804 C20.6748466,24.1717791 20.3067485,24.3558282 20.3067485,24.3558282 C20.0613497,24.2331288 19.7546012,23.7423313 19.7546012,23.803681 C19.6932515,23.8650307 19.6932515,24.2944785 19.5705521,24.3558282 C19.4478528,24.4171779 18.3435583,23.3128834 18.3435583,23.1288344 C18.2822086,22.8834356 18.5276074,22.8220859 18.5276074,22.8220859 Z M24.7852761,12.5153374 L24.7239264,12.392638 L24.6625767,12.4539877 C24.6625767,12.4539877 24.601227,12.5153374 24.5398773,12.5153374 C24.4785276,12.5153374 24.2944785,12.4539877 24.2331288,12.3312883 L24.1717791,12.2699387 C24.1104294,12.1472393 23.9877301,12.0245399 23.9263804,11.9018405 L23.8650307,11.7791411 L23.803681,11.8404908 L23.7423313,11.9018405 C23.7423313,11.9018405 23.6809816,12.0245399 23.4969325,12.0245399 C23.3128834,12.0245399 23.1288344,11.9018405 22.8220859,11.7791411 C22.7607362,11.6564417 22.0858896,11.0429448 21.595092,10.5521472 C21.4723926,10.4907975 21.4110429,10.4294479 21.3496933,10.3680982 L21.1656442,10.2453988 L21.1656442,10.2453988 L21.2883436,10.2453988 C22.0245399,10.3680982 23.006135,10.7361963 23.006135,10.7361963 L23.006135,10.7361963 C23.1288344,10.7361963 23.2515337,10.7361963 23.3128834,10.7361963 C23.803681,10.7361963 24.0490798,10.5521472 24.1104294,10.4907975 C24.3558282,10.6748466 24.5398773,10.7361963 24.7852761,10.7361963 L24.8466258,10.7361963 L24.8466258,10.8588957 L24.7852761,10.9815951 L24.9079755,10.9815951 C25.1533742,10.9815951 25.7055215,11.0429448 25.8895706,11.2883436 C25.9509202,11.3496933 25.9509202,11.4723926 25.8895706,11.5337423 L25.8282209,11.6564417 L25.9509202,11.7177914 C25.9509202,11.7177914 26.5644172,11.9018405 26.7484663,12.2699387 C26.809816,12.392638 26.809816,12.5153374 26.7484663,12.6380368 L26.7484663,12.6993865 L26.809816,12.7607362 C26.809816,12.7607362 27.3006135,13.0674847 27.0552147,13.8650307 L27.0552147,13.9263804 L27.0552147,13.9877301 C27.0552147,13.9877301 27.607362,14.7852761 27.3006135,15.2147239 C27.0552147,15.0920245 26.5644172,14.9079755 26.5030675,14.601227 L26.5030675,14.601227 L26.5030675,14.601227 C26.5030675,14.601227 26.0736196,14.1717791 25.7668712,13.4969325 L25.7055215,13.4355828 L25.6441718,13.4355828 L25.5828221,13.4355828 C25.4601227,13.2515337 25.0920245,13.190184 24.7852761,12.5153374 Z M25.3374233,6.80981595 L25.3374233,6.80981595 L25.4601227,6.80981595 C25.4601227,6.80981595 25.5828221,6.74846626 25.7055215,6.74846626 C25.8895706,6.74846626 26.0122699,6.87116564 26.1349693,7.05521472 L26.1349693,7.11656442 L26.196319,7.11656442 L26.2576687,7.11656442 C26.3803681,7.11656442 26.6871166,7.11656442 26.809816,7.3006135 C26.8711656,7.36196319 26.8711656,7.42331288 26.8711656,7.54601227 C26.6871166,7.66871166 26.3803681,7.91411043 26.1349693,7.91411043 L26.0736196,7.91411043 L26.0736196,7.91411043 L26.0736196,7.91411043 C26.0736196,7.91411043 25.8282209,8.03680982 25.398773,8.03680982 C25.2760736,8.03680982 25.2147239,8.03680982 25.1533742,8.03680982 L25.0920245,8.03680982 L25.0920245,8.09815951 C25.0920245,8.09815951 24.8466258,8.40490798 24.4171779,8.40490798 L24.2331288,8.40490798 L24.2331288,8.40490798 L24.2331288,8.46625767 C24.2331288,8.46625767 24.2331288,8.58895706 24.1104294,8.65030675 L24.0490798,8.71165644 L23.8650307,8.77300613 L23.803681,8.77300613 C23.7423313,8.77300613 23.6196319,8.77300613 23.5582822,8.77300613 L23.4969325,8.77300613 L23.4355828,8.77300613 L23.4355828,8.77300613 L23.4355828,8.77300613 L23.4355828,8.77300613 C23.4355828,8.83435583 23.4355828,9.0797546 22.8220859,9.44785276 C22.6993865,9.44785276 22.1472393,9.63190184 21.6564417,9.75460123 C21.4723926,9.81595092 21.4110429,9.87730061 21.2269939,9.93865031 L21.2269939,9.93865031 L21.2269939,9.93865031 L21.4110429,9.69325153 C21.7177914,9.38650307 22.1472393,8.95705521 22.1472393,8.95705521 L22.1472393,8.95705521 C22.4539877,8.52760736 22.4539877,8.2208589 22.4539877,8.1595092 C22.8220859,7.91411043 22.8834356,7.66871166 22.8834356,7.54601227 C23.0674847,7.48466258 23.1288344,7.36196319 23.2515337,7.3006135 L23.2515337,7.3006135 C23.3128834,7.3006135 23.3742331,7.3006135 23.3742331,7.42331288 L23.4355828,7.54601227 L23.4969325,7.42331288 C23.6809816,7.17791411 23.9877301,6.80981595 24.1717791,6.80981595 C24.1717791,6.80981595 24.2331288,6.80981595 24.2944785,6.93251534 L24.3558282,7.05521472 L24.4785276,6.93251534 C24.601227,6.80981595 24.9079755,6.62576687 25.1533742,6.62576687 C25.2760736,6.62576687 25.2760736,6.68711656 25.3374233,6.80981595 Z M21.9018405,7.05521472 L22.0245399,7.17791411 L22.0858896,6.99386503 C22.1472393,6.68711656 22.3312883,6.25766871 22.392638,6.25766871 L22.4539877,6.3190184 L22.5766871,6.44171779 L22.6380368,6.3190184 C22.6993865,6.13496933 22.8834356,5.76687117 23.1288344,5.76687117 L23.2515337,5.82822086 L23.3128834,5.88957055 L23.3742331,5.82822086 C23.3742331,5.82822086 23.4969325,5.64417178 23.6196319,5.64417178 C23.7423313,5.64417178 23.803681,5.70552147 23.8650307,5.76687117 L23.9263804,5.82822086 L23.9877301,5.82822086 C23.9877301,5.82822086 24.2331288,5.70552147 24.3558282,5.70552147 C24.4785276,5.70552147 24.601227,5.76687117 24.601227,5.82822086 C24.4785276,6.07361963 24.3558282,6.3803681 24.1717791,6.3803681 L24.1717791,6.3803681 L24.1717791,6.3803681 C24.1717791,6.3803681 23.9263804,6.62576687 23.4355828,6.80981595 L23.3742331,6.80981595 L23.3742331,6.87116564 C23.3742331,6.87116564 23.3742331,6.99386503 23.2515337,7.11656442 C23.190184,7.2392638 23.006135,7.36196319 22.8834356,7.36196319 L22.8834356,7.36196319 L22.8220859,7.36196319 L22.8220859,7.48466258 L22.8220859,7.54601227 L22.8220859,7.60736196 C22.8220859,7.66871166 22.8220859,7.79141104 22.6993865,7.85276074 C22.6380368,7.91411043 22.5153374,7.97546012 22.4539877,8.09815951 L22.392638,8.1595092 L22.392638,8.1595092 L22.392638,8.1595092 L22.4539877,8.2208589 C22.4539877,8.2208589 22.5766871,8.46625767 22.208589,8.95705521 C22.1472393,9.01840491 21.9018405,9.20245399 21.595092,9.44785276 L21.4110429,9.63190184 L21.2269939,9.81595092 L21.2883436,9.69325153 C21.5337423,9.01840491 21.8404908,7.79141104 21.9631902,6.99386503 L21.9018405,7.05521472 Z M20.3067485,6.44171779 L20.3067485,6.44171779 L20.3680982,6.3190184 C20.3067485,5.70552147 20.3680982,5.21472393 20.4907975,5.09202454 L20.5521472,5.03067485 L20.6134969,5.03067485 L20.7361963,5.09202454 L20.7361963,5.09202454 C20.8588957,4.66257669 20.9815951,4.35582822 21.1042945,4.23312883 C21.2269939,4.35582822 21.3496933,4.60122699 21.4723926,5.09202454 L21.4723926,5.21472393 L21.595092,5.15337423 L21.6564417,5.15337423 L21.7177914,5.21472393 C21.8404908,5.39877301 21.9018405,5.88957055 21.8404908,6.44171779 L21.8404908,6.56441718 L21.9018405,6.56441718 C21.9018405,6.62576687 21.9018405,6.80981595 21.8404908,6.99386503 L21.8404908,7.11656442 L21.7791411,7.36196319 C21.6564417,7.91411043 21.4723926,8.65030675 21.2269939,9.50920245 L21.2269939,9.57055215 L21.1656442,9.81595092 L21.1656442,9.81595092 L21.1656442,9.75460123 L21.1042945,9.50920245 L21.1042945,9.38650307 C20.8588957,8.65030675 20.6748466,7.79141104 20.5521472,7.2392638 L20.4907975,6.99386503 L20.4907975,6.93251534 C20.3067485,6.68711656 20.3067485,6.50306748 20.3067485,6.44171779 Z M17.7300613,5.70552147 C17.9141104,5.70552147 18.0981595,5.82822086 18.0981595,5.82822086 L18.1595092,5.82822086 L18.2208589,5.76687117 C18.3435583,5.70552147 18.404908,5.64417178 18.4662577,5.64417178 C18.6503067,5.64417178 18.7116564,5.82822086 18.7116564,5.82822086 L18.7730061,5.88957055 L18.8343558,5.82822086 L18.9570552,5.76687117 C19.1411043,5.76687117 19.3251534,6.13496933 19.3865031,6.3190184 L19.4478528,6.44171779 L19.5092025,6.3190184 L19.5705521,6.25766871 C19.6932515,6.25766871 19.8159509,6.62576687 19.8773006,6.99386503 L19.8773006,7.17791411 L20,7.05521472 L20.1226994,6.99386503 C20.3067485,7.73006135 20.6134969,9.01840491 20.797546,9.69325153 L20.8588957,9.81595092 L20.6748466,9.63190184 L20.4907975,9.44785276 C20.2453988,9.20245399 19.9386503,8.95705521 19.8773006,8.95705521 C19.5092025,8.46625767 19.6319018,8.2208589 19.6319018,8.2208589 L19.6932515,8.1595092 L19.6932515,8.1595092 L19.6932515,8.1595092 L19.6319018,8.09815951 C19.5092025,8.03680982 19.3865031,7.97546012 19.3865031,7.85276074 C19.2638037,7.73006135 19.2638037,7.60736196 19.2638037,7.60736196 L19.2638037,7.54601227 L19.2638037,7.54601227 L19.2638037,7.54601227 L19.202454,7.54601227 L19.202454,7.54601227 C18.9570552,7.48466258 18.8957055,7.36196319 18.8343558,7.3006135 C18.7116564,7.11656442 18.7116564,7.05521472 18.7116564,7.05521472 L18.7116564,6.93251534 L18.6503067,6.93251534 C18.2822086,6.74846626 17.9141104,6.50306748 17.9141104,6.50306748 L17.9141104,6.50306748 L17.9141104,6.50306748 C17.7300613,6.50306748 17.607362,6.19631902 17.4846626,5.95092025 C17.4846626,5.70552147 17.607362,5.70552147 17.7300613,5.70552147 Z M15.2760736,7.36196319 C15.4601227,7.17791411 15.7668712,7.17791411 15.8282209,7.17791411 L15.8895706,7.17791411 L15.9509202,7.17791411 L15.9509202,7.11656442 C16.0736196,6.87116564 16.196319,6.80981595 16.3803681,6.80981595 C16.5030675,6.80981595 16.6257669,6.87116564 16.6257669,6.87116564 L16.6871166,6.93251534 L16.7484663,6.87116564 C16.809816,6.74846626 16.8711656,6.68711656 16.993865,6.68711656 C17.2392638,6.68711656 17.6687117,6.99386503 17.6687117,6.99386503 L17.791411,7.11656442 L17.8527607,6.99386503 C17.8527607,6.87116564 17.9141104,6.87116564 17.9754601,6.87116564 C18.1595092,6.87116564 18.4662577,7.2392638 18.6503067,7.48466258 L18.7116564,7.60736196 L18.7730061,7.48466258 C18.8343558,7.36196319 18.8957055,7.36196319 18.9570552,7.36196319 L18.9570552,7.36196319 C19.0797546,7.48466258 19.202454,7.60736196 19.3251534,7.60736196 C19.3251534,7.73006135 19.3865031,7.97546012 19.7546012,8.2208589 C19.6932515,8.34355828 19.6932515,8.65030675 20,9.01840491 L20,9.01840491 C20,9.01840491 20.4294479,9.32515337 20.7361963,9.75460123 L20.9202454,10 L20.9202454,10 L20.9202454,10 C20.797546,9.93865031 20.6748466,9.87730061 20.4907975,9.81595092 C20,9.63190184 19.4478528,9.50920245 19.3251534,9.50920245 C18.7116564,9.26380368 18.7116564,8.89570552 18.7116564,8.83435583 L18.7116564,8.83435583 L18.7116564,8.77300613 L18.7116564,8.77300613 L18.6503067,8.77300613 L18.5889571,8.77300613 C18.4662577,8.77300613 18.404908,8.77300613 18.3435583,8.77300613 L18.2822086,8.77300613 L18.0981595,8.71165644 L18.0368098,8.65030675 C17.9141104,8.52760736 17.9141104,8.46625767 17.9141104,8.46625767 L17.9141104,8.40490798 L17.8527607,8.40490798 L17.6687117,8.40490798 C17.2392638,8.40490798 16.993865,8.09815951 16.993865,8.09815951 L16.9325153,8.03680982 L16.8711656,8.03680982 C16.7484663,8.03680982 16.6871166,8.03680982 16.6257669,8.03680982 C16.2576687,8.03680982 15.9509202,7.91411043 15.9509202,7.91411043 L15.9509202,7.91411043 L15.9509202,7.91411043 L15.8895706,7.91411043 C15.6441718,7.91411043 15.3374233,7.66871166 15.1533742,7.54601227 C15.1533742,7.42331288 15.2147239,7.42331288 15.2760736,7.36196319 Z M13.5582822,10.9815951 C13.6196319,10.6748466 14.0490798,10.3680982 14.0490798,10.3680982 L14.1104294,10.3680982 L14.1104294,10.3067485 C14.1104294,9.63190184 14.601227,9.57055215 14.601227,9.57055215 L14.6625767,9.57055215 L14.6625767,9.44785276 C14.6625767,9.32515337 14.6625767,9.26380368 14.7239264,9.20245399 C14.8466258,9.0797546 15.0306748,9.01840491 15.3374233,9.01840491 C15.5214724,9.01840491 15.6441718,9.0797546 15.6441718,9.0797546 L15.7668712,9.0797546 L15.7055215,8.95705521 C15.7055215,8.89570552 15.7055215,8.77300613 15.7055215,8.77300613 C15.7668712,8.71165644 15.8282209,8.71165644 15.9509202,8.71165644 C16.2576687,8.71165644 16.809816,8.95705521 16.809816,8.95705521 L16.9325153,9.01840491 L16.9325153,8.83435583 C16.9325153,8.71165644 16.9325153,8.65030675 16.993865,8.65030675 C17.0552147,8.58895706 17.1779141,8.52760736 17.2392638,8.52760736 C17.5460123,8.52760736 17.9754601,8.71165644 17.9754601,8.71165644 L18.0368098,8.71165644 C18.1595092,8.77300613 18.2822086,8.83435583 18.5276074,8.83435583 C18.5276074,9.01840491 18.7116564,9.26380368 19.2638037,9.57055215 L19.2638037,9.57055215 C19.2638037,9.57055215 19.5092025,9.63190184 19.9386503,9.75460123 C20.1840491,9.81595092 20.3680982,9.87730061 20.6134969,10 L20.6134969,10 L20.3680982,10.0613497 C19.6932515,10.2453988 19.0184049,10.4907975 18.8957055,10.4907975 C18.7730061,10.4907975 18.6503067,10.4907975 18.6503067,10.4907975 C18.0368098,10.4907975 17.9141104,10.2453988 17.9141104,10.2453988 L17.8527607,10.1226994 L17.791411,10.1840491 C17.5460123,10.3680982 17.3619632,10.4294479 17.1779141,10.4294479 L17.1779141,10.4294479 L17.1165644,10.4294479 L17.0552147,10.4294479 C16.9325153,10.3680982 16.8711656,10.3067485 16.8711656,10.3067485 L16.809816,10.2453988 L16.7484663,10.3067485 C16.5030675,10.4907975 16.3190184,10.5521472 16.0736196,10.5521472 C15.8282209,10.5521472 15.7055215,10.4294479 15.7055215,10.4294479 L15.6441718,10.4294479 L15.5828221,10.4907975 C15.0920245,10.8588957 14.601227,11.0429448 14.601227,11.0429448 L14.601227,11.0429448 L14.601227,11.0429448 C14.4785276,11.1656442 14.3558282,11.2269939 13.9877301,11.2269939 C13.803681,11.2269939 13.7423313,11.2269939 13.6196319,11.2269939 C13.5582822,11.2269939 13.5582822,11.1042945 13.5582822,10.9815951 Z M26.2576687,25.8282209 C24.7852761,26.809816 23.3128834,27.9754601 22.0245399,29.0797546 C22.7607362,29.7546012 23.4355828,30.3680982 24.1104294,31.1656442 L24.1717791,31.1042945 L24.3558282,31.1042945 L24.4171779,31.2269939 L24.5398773,31.0429448 C24.4785276,30.8588957 24.5398773,30.6748466 24.7239264,30.5521472 C24.9693252,30.3680982 25.1533742,30.3680982 25.3374233,30.5521472 C25.5214724,30.7361963 25.4601227,30.9815951 25.2760736,31.1656442 C25.1533742,31.2883436 25.0306748,31.3496933 24.8466258,31.2883436 C24.7239264,31.4723926 24.7852761,31.5337423 24.7852761,31.5337423 C24.9693252,31.9631902 25.7668712,32.2699387 26.4417178,32.2699387 C26.9325153,32.2699387 27.2392638,32.0858896 27.7300613,31.595092 C28.2822086,31.0429448 28.7730061,31.595092 28.7730061,31.595092 C29.5092025,32.7607362 27.9754601,33.7423313 26.8711656,33.803681 C25.5214724,33.803681 24.2331288,33.006135 23.9263804,32.5766871 C23.803681,32.4539877 23.6809816,32.392638 23.6196319,32.4539877 C23.5582822,32.4539877 23.4969325,32.5766871 23.4969325,32.6993865 C23.4969325,32.8834356 23.4355828,32.9447853 23.3128834,33.0674847 C23.1288344,33.2515337 22.8834356,33.2515337 22.6993865,33.0674847 C22.5153374,32.8834356 22.5766871,32.6380368 22.7607362,32.4539877 C22.8834356,32.3312883 23.006135,32.3312883 23.0674847,32.3312883 L23.1288344,32.3312883 L23.0674847,32.2699387 L23.0674847,32.0858896 L23.2515337,31.9018405 C23.006135,31.6564417 22.1472393,30.797546 20.9815951,29.8159509 C19.8773006,30.797546 19.0797546,31.595092 18.7116564,31.9018405 L18.8957055,32.0858896 L18.8957055,32.2699387 L18.8343558,32.3312883 L18.8957055,32.3312883 C19.0184049,32.3312883 19.1411043,32.392638 19.202454,32.4539877 C19.3865031,32.6380368 19.4478528,32.8834356 19.2638037,33.0674847 C19.0797546,33.2515337 18.8343558,33.2515337 18.6503067,33.0674847 C18.5276074,32.9447853 18.4662577,32.8220859 18.4662577,32.6993865 C18.4662577,32.5766871 18.404908,32.5153374 18.3435583,32.4539877 C18.2208589,32.392638 18.1595092,32.4539877 18.0368098,32.5766871 C17.7300613,32.9447853 16.5030675,33.803681 15.1533742,33.803681 C13.9877301,33.803681 12.392638,32.7607362 13.2515337,31.595092 C13.2515337,31.595092 13.7423313,31.0429448 14.2944785,31.595092 C14.7852761,32.0858896 15.0920245,32.2699387 15.5828221,32.2699387 C16.196319,32.2699387 16.993865,31.9018405 17.1779141,31.5337423 C17.1779141,31.5337423 17.2392638,31.3496933 17.1165644,31.2883436 C16.993865,31.3496933 16.8711656,31.2883436 16.6871166,31.1656442 C16.5030675,30.9815951 16.4417178,30.7361963 16.6257669,30.5521472 C16.809816,30.3680982 17.0552147,30.3680982 17.2392638,30.5521472 C17.4233129,30.6748466 17.4846626,30.8588957 17.4233129,31.0429448 L17.5460123,31.2269939 L17.5460123,31.1042945 L17.7300613,31.1042945 L17.791411,31.1656442 C18.5276074,30.4294479 19.202454,29.7546012 19.8773006,29.0797546 C18.6503067,28.0368098 17.1165644,26.809816 15.6441718,25.8282209 C10.9815951,22.6993865 7.48466258,23.0674847 7.48466258,23.0674847 C10.1226994,22.0858896 13.4355828,23.0674847 14.9079755,23.8650307 C16.0122699,24.4785276 18.2822086,25.8895706 20.8588957,28.0981595 C23.4355828,25.8282209 25.7668712,24.4171779 26.809816,23.8650307 C28.3435583,23.006135 31.595092,22.0858896 34.2331288,23.0674847 C34.4171779,22.9447853 30.9202454,22.6993865 26.2576687,25.8282209 Z" id="Shape"></path></g></g></g></svg>