<svg xmlns="http://www.w3.org/2000/svg" viewBox="0 0 512 512" width="512" height="512">
  <path d="M 241 0 L 240 1 L 228 1 L 227 2 L 220 2 L 219 3 L 214 3 L 213 4 L 208 4 L 207 5 L 203 5 L 202 6 L 199 6 L 198 7 L 194 7 L 193 8 L 190 8 L 189 9 L 187 9 L 186 10 L 183 10 L 182 11 L 180 11 L 179 12 L 177 12 L 176 13 L 174 13 L 173 14 L 171 14 L 170 15 L 168 15 L 167 16 L 166 16 L 165 17 L 163 17 L 162 18 L 160 18 L 159 19 L 158 19 L 157 20 L 156 20 L 155 21 L 153 21 L 152 22 L 151 22 L 150 23 L 149 23 L 148 24 L 147 24 L 146 25 L 145 25 L 144 26 L 143 26 L 142 27 L 141 27 L 140 28 L 139 28 L 138 29 L 137 29 L 136 30 L 135 30 L 134 31 L 133 31 L 132 32 L 131 32 L 130 33 L 129 33 L 127 35 L 126 35 L 125 36 L 124 36 L 122 38 L 121 38 L 120 39 L 119 39 L 117 41 L 116 41 L 114 43 L 113 43 L 111 45 L 110 45 L 107 48 L 106 48 L 104 50 L 103 50 L 100 53 L 99 53 L 95 57 L 94 57 L 89 62 L 88 62 L 76 74 L 75 74 L 74 75 L 74 76 L 62 88 L 62 89 L 57 94 L 57 95 L 53 99 L 53 100 L 50 103 L 50 104 L 48 106 L 48 107 L 45 110 L 45 111 L 43 113 L 43 114 L 41 116 L 41 117 L 39 119 L 39 120 L 38 121 L 38 122 L 36 124 L 36 125 L 35 126 L 35 127 L 33 129 L 33 130 L 32 131 L 32 132 L 31 133 L 31 134 L 30 135 L 30 136 L 29 137 L 29 138 L 28 139 L 28 140 L 27 141 L 27 142 L 26 143 L 26 144 L 25 145 L 25 146 L 24 147 L 24 148 L 23 149 L 23 150 L 22 151 L 22 152 L 21 153 L 21 155 L 20 156 L 20 157 L 19 158 L 19 159 L 18 160 L 18 162 L 17 163 L 17 165 L 16 166 L 16 167 L 15 168 L 15 170 L 14 171 L 14 173 L 13 174 L 13 176 L 12 177 L 12 179 L 11 180 L 11 182 L 10 183 L 10 186 L 9 187 L 9 189 L 8 190 L 8 193 L 7 194 L 7 198 L 6 199 L 6 202 L 5 203 L 5 207 L 4 208 L 4 213 L 3 214 L 3 219 L 2 220 L 2 227 L 1 228 L 1 240 L 0 241 L 0 270 L 1 271 L 1 283 L 2 284 L 2 291 L 3 292 L 3 297 L 4 298 L 4 303 L 5 304 L 5 308 L 6 309 L 6 312 L 7 313 L 7 317 L 8 318 L 8 321 L 9 322 L 9 324 L 10 325 L 10 328 L 11 329 L 11 331 L 12 332 L 12 334 L 13 335 L 13 337 L 14 338 L 14 340 L 15 341 L 15 343 L 16 344 L 16 345 L 17 346 L 17 348 L 18 349 L 18 351 L 19 352 L 19 353 L 20 354 L 20 355 L 21 356 L 21 358 L 22 359 L 22 360 L 23 361 L 23 362 L 24 363 L 24 364 L 25 365 L 25 366 L 26 367 L 26 368 L 27 369 L 27 370 L 28 371 L 28 372 L 29 373 L 29 374 L 30 375 L 30 376 L 31 377 L 31 378 L 32 379 L 32 380 L 33 381 L 33 382 L 35 384 L 35 385 L 36 386 L 36 387 L 38 389 L 38 390 L 39 391 L 39 392 L 41 394 L 41 395 L 43 397 L 43 398 L 45 400 L 45 401 L 48 404 L 48 405 L 50 407 L 50 408 L 53 411 L 53 412 L 57 416 L 57 417 L 62 422 L 62 423 L 74 435 L 74 436 L 75 437 L 76 437 L 88 449 L 89 449 L 94 454 L 95 454 L 99 458 L 100 458 L 103 461 L 104 461 L 106 463 L 107 463 L 110 466 L 111 466 L 113 468 L 114 468 L 116 470 L 117 470 L 119 472 L 120 472 L 121 473 L 122 473 L 124 475 L 125 475 L 126 476 L 127 476 L 129 478 L 130 478 L 131 479 L 132 479 L 133 480 L 134 480 L 135 481 L 136 481 L 137 482 L 138 482 L 139 483 L 140 483 L 141 484 L 142 484 L 143 485 L 144 485 L 145 486 L 146 486 L 147 487 L 148 487 L 149 488 L 150 488 L 151 489 L 152 489 L 153 490 L 155 490 L 156 491 L 157 491 L 158 492 L 159 492 L 160 493 L 162 493 L 163 494 L 165 494 L 166 495 L 167 495 L 168 496 L 170 496 L 171 497 L 173 497 L 174 498 L 176 498 L 177 499 L 179 499 L 180 500 L 182 500 L 183 501 L 186 501 L 187 502 L 189 502 L 190 503 L 193 503 L 194 504 L 198 504 L 199 505 L 202 505 L 203 506 L 207 506 L 208 507 L 213 507 L 214 508 L 219 508 L 220 509 L 227 509 L 228 510 L 240 510 L 241 511 L 270 511 L 271 510 L 283 510 L 284 509 L 291 509 L 292 508 L 297 508 L 298 507 L 303 507 L 304 506 L 308 506 L 309 505 L 312 505 L 313 504 L 317 504 L 318 503 L 321 503 L 322 502 L 324 502 L 325 501 L 328 501 L 329 500 L 331 500 L 332 499 L 334 499 L 335 498 L 337 498 L 338 497 L 340 497 L 341 496 L 343 496 L 344 495 L 345 495 L 346 494 L 348 494 L 349 493 L 351 493 L 352 492 L 353 492 L 354 491 L 355 491 L 356 490 L 358 490 L 359 489 L 360 489 L 361 488 L 362 488 L 363 487 L 364 487 L 365 486 L 366 486 L 367 485 L 368 485 L 369 484 L 370 484 L 371 483 L 372 483 L 373 482 L 374 482 L 375 481 L 376 481 L 377 480 L 378 480 L 379 479 L 380 479 L 381 478 L 382 478 L 384 476 L 385 476 L 386 475 L 387 475 L 389 473 L 390 473 L 391 472 L 392 472 L 394 470 L 395 470 L 397 468 L 398 468 L 400 466 L 401 466 L 404 463 L 405 463 L 407 461 L 408 461 L 411 458 L 412 458 L 416 454 L 417 454 L 422 449 L 423 449 L 435 437 L 436 437 L 437 436 L 437 435 L 449 423 L 449 422 L 454 417 L 454 416 L 458 412 L 458 411 L 461 408 L 461 407 L 463 405 L 463 404 L 466 401 L 466 400 L 468 398 L 468 397 L 470 395 L 470 394 L 472 392 L 472 391 L 473 390 L 473 389 L 475 387 L 475 386 L 476 385 L 476 384 L 478 382 L 478 381 L 479 380 L 479 379 L 480 378 L 480 377 L 481 376 L 481 375 L 482 374 L 482 373 L 483 372 L 483 371 L 484 370 L 484 369 L 485 368 L 485 367 L 486 366 L 486 365 L 487 364 L 487 363 L 488 362 L 488 361 L 489 360 L 489 359 L 490 358 L 490 356 L 491 355 L 491 354 L 492 353 L 492 352 L 493 351 L 493 349 L 494 348 L 494 346 L 495 345 L 495 344 L 496 343 L 496 341 L 497 340 L 497 338 L 498 337 L 498 335 L 499 334 L 499 332 L 500 331 L 500 329 L 501 328 L 501 325 L 502 324 L 502 322 L 503 321 L 503 318 L 504 317 L 504 313 L 505 312 L 505 309 L 506 308 L 506 304 L 507 303 L 507 298 L 508 297 L 508 292 L 509 291 L 509 284 L 510 283 L 510 271 L 511 270 L 511 241 L 510 240 L 510 229 L 509 228 L 509 221 L 508 220 L 508 214 L 507 213 L 507 209 L 506 208 L 506 203 L 505 202 L 505 199 L 504 198 L 504 195 L 503 194 L 503 191 L 502 190 L 502 187 L 501 186 L 501 184 L 500 183 L 500 180 L 499 179 L 499 177 L 498 176 L 498 174 L 497 173 L 497 171 L 496 170 L 496 168 L 495 167 L 495 166 L 494 165 L 494 163 L 493 162 L 493 161 L 492 160 L 492 158 L 491 157 L 491 156 L 490 155 L 490 154 L 489 153 L 489 151 L 488 150 L 488 149 L 487 148 L 487 147 L 486 146 L 486 145 L 485 144 L 485 143 L 484 142 L 484 141 L 483 140 L 483 139 L 482 138 L 482 137 L 481 136 L 481 135 L 480 134 L 480 133 L 479 132 L 479 131 L 477 129 L 477 128 L 476 127 L 476 126 L 475 125 L 475 124 L 473 122 L 473 121 L 471 119 L 471 118 L 469 116 L 469 115 L 468 114 L 468 113 L 465 110 L 465 109 L 463 107 L 463 106 L 460 103 L 460 102 L 457 99 L 457 98 L 453 94 L 453 93 L 447 87 L 447 86 L 425 64 L 424 64 L 418 58 L 417 58 L 413 54 L 412 54 L 409 51 L 408 51 L 405 48 L 404 48 L 402 46 L 401 46 L 398 43 L 397 43 L 396 42 L 395 42 L 393 40 L 392 40 L 390 38 L 389 38 L 387 36 L 386 36 L 385 35 L 384 35 L 383 34 L 382 34 L 380 32 L 379 32 L 378 31 L 377 31 L 376 30 L 375 30 L 374 29 L 373 29 L 372 28 L 371 28 L 370 27 L 369 27 L 368 26 L 367 26 L 366 25 L 365 25 L 364 24 L 363 24 L 362 23 L 361 23 L 360 22 L 358 22 L 357 21 L 356 21 L 355 20 L 354 20 L 353 19 L 351 19 L 350 18 L 349 18 L 348 17 L 346 17 L 345 16 L 344 16 L 343 15 L 341 15 L 340 14 L 338 14 L 337 13 L 335 13 L 334 12 L 332 12 L 331 11 L 328 11 L 327 10 L 325 10 L 324 9 L 321 9 L 320 8 L 317 8 L 316 7 L 313 7 L 312 6 L 309 6 L 308 5 L 303 5 L 302 4 L 298 4 L 297 3 L 291 3 L 290 2 L 283 2 L 282 1 L 271 1 L 270 0 Z M 375 380 L 376 379 L 379 379 L 380 380 L 379 381 L 379 383 L 378 384 L 378 385 L 377 386 L 377 388 L 376 389 L 376 390 L 375 391 L 375 393 L 374 394 L 374 395 L 373 396 L 373 397 L 372 398 L 372 399 L 371 400 L 371 401 L 370 402 L 370 404 L 369 405 L 369 406 L 368 407 L 368 408 L 366 410 L 366 411 L 365 412 L 365 413 L 364 414 L 364 415 L 363 416 L 363 417 L 362 418 L 362 419 L 360 421 L 360 422 L 359 423 L 359 424 L 357 426 L 357 427 L 356 428 L 356 429 L 354 431 L 354 432 L 352 434 L 352 435 L 349 438 L 349 439 L 347 441 L 347 442 L 343 446 L 343 447 L 337 453 L 337 454 L 324 467 L 323 467 L 319 471 L 318 471 L 314 475 L 313 475 L 311 477 L 310 477 L 308 479 L 307 479 L 306 480 L 305 480 L 303 482 L 302 482 L 301 483 L 300 483 L 299 484 L 298 484 L 297 485 L 296 485 L 295 486 L 294 486 L 293 487 L 292 487 L 291 488 L 289 488 L 288 489 L 286 489 L 285 490 L 284 490 L 283 491 L 280 491 L 279 492 L 276 492 L 275 493 L 271 493 L 270 494 L 265 494 L 264 493 L 264 392 L 265 391 L 282 391 L 283 390 L 299 390 L 300 389 L 312 389 L 313 388 L 321 388 L 322 387 L 330 387 L 331 386 L 338 386 L 339 385 L 344 385 L 345 384 L 351 384 L 352 383 L 358 383 L 359 382 L 364 382 L 365 381 L 369 381 L 370 380 Z M 131 380 L 132 379 L 135 379 L 136 380 L 141 380 L 142 381 L 146 381 L 147 382 L 152 382 L 153 383 L 159 383 L 160 384 L 166 384 L 167 385 L 172 385 L 173 386 L 180 386 L 181 387 L 189 387 L 190 388 L 198 388 L 199 389 L 211 389 L 212 390 L 228 390 L 229 391 L 246 391 L 247 392 L 247 493 L 246 494 L 241 494 L 240 493 L 236 493 L 235 492 L 232 492 L 231 491 L 228 491 L 227 490 L 226 490 L 225 489 L 223 489 L 222 488 L 220 488 L 219 487 L 218 487 L 217 486 L 216 486 L 215 485 L 214 485 L 213 484 L 212 484 L 211 483 L 210 483 L 209 482 L 208 482 L 206 480 L 205 480 L 204 479 L 203 479 L 201 477 L 200 477 L 198 475 L 197 475 L 193 471 L 192 471 L 188 467 L 187 467 L 174 454 L 174 453 L 168 447 L 168 446 L 164 442 L 164 441 L 162 439 L 162 438 L 159 435 L 159 434 L 157 432 L 157 431 L 155 429 L 155 428 L 154 427 L 154 426 L 152 424 L 152 423 L 151 422 L 151 421 L 149 419 L 149 418 L 148 417 L 148 416 L 147 415 L 147 414 L 146 413 L 146 412 L 144 410 L 144 409 L 143 408 L 143 407 L 142 406 L 142 405 L 141 404 L 141 403 L 140 402 L 140 400 L 139 399 L 139 398 L 138 397 L 138 396 L 137 395 L 137 394 L 136 393 L 136 391 L 135 390 L 135 389 L 134 388 L 134 386 L 133 385 L 133 384 L 132 383 L 132 381 Z M 462 365 L 463 364 L 467 364 L 468 365 L 468 366 L 467 367 L 467 368 L 466 369 L 466 370 L 464 372 L 464 373 L 463 374 L 463 375 L 462 376 L 462 377 L 460 379 L 460 380 L 458 382 L 458 383 L 457 384 L 457 385 L 455 387 L 455 388 L 453 390 L 453 391 L 450 394 L 450 395 L 448 397 L 448 398 L 445 401 L 445 402 L 440 407 L 440 408 L 435 413 L 435 414 L 415 434 L 414 434 L 408 440 L 407 440 L 402 445 L 401 445 L 399 447 L 398 447 L 395 450 L 394 450 L 391 453 L 390 453 L 388 455 L 387 455 L 385 457 L 384 457 L 383 458 L 382 458 L 380 460 L 379 460 L 378 461 L 377 461 L 375 463 L 374 463 L 373 464 L 372 464 L 371 465 L 370 465 L 368 467 L 367 467 L 366 468 L 365 468 L 364 469 L 363 469 L 362 470 L 361 470 L 360 471 L 359 471 L 358 472 L 357 472 L 356 473 L 355 473 L 354 474 L 352 474 L 351 475 L 350 475 L 349 476 L 348 476 L 347 477 L 345 477 L 344 478 L 343 478 L 342 479 L 340 479 L 339 480 L 337 480 L 336 481 L 335 481 L 334 482 L 332 482 L 331 481 L 333 479 L 334 479 L 345 468 L 345 467 L 353 459 L 353 458 L 357 454 L 357 453 L 361 449 L 361 448 L 364 445 L 364 444 L 366 442 L 366 441 L 368 439 L 368 438 L 370 436 L 370 435 L 372 433 L 372 432 L 374 430 L 374 429 L 375 428 L 375 427 L 376 426 L 376 425 L 378 423 L 378 422 L 379 421 L 379 420 L 380 419 L 380 418 L 381 417 L 381 416 L 382 415 L 382 414 L 383 413 L 383 412 L 384 411 L 384 410 L 385 409 L 385 408 L 386 407 L 386 406 L 387 405 L 387 404 L 388 403 L 388 402 L 389 401 L 389 399 L 390 398 L 390 397 L 391 396 L 391 395 L 392 394 L 392 392 L 393 391 L 393 390 L 394 389 L 394 387 L 395 386 L 395 384 L 396 383 L 396 381 L 397 380 L 397 378 L 398 377 L 398 376 L 399 375 L 404 375 L 405 374 L 410 374 L 411 373 L 416 373 L 417 372 L 421 372 L 422 371 L 427 371 L 428 370 L 433 370 L 434 369 L 439 369 L 440 368 L 445 368 L 446 367 L 450 367 L 451 366 L 456 366 L 457 365 Z M 43 365 L 44 364 L 48 364 L 49 365 L 54 365 L 55 366 L 60 366 L 61 367 L 65 367 L 66 368 L 71 368 L 72 369 L 77 369 L 78 370 L 83 370 L 84 371 L 89 371 L 90 372 L 94 372 L 95 373 L 100 373 L 101 374 L 106 374 L 107 375 L 112 375 L 113 376 L 113 377 L 114 378 L 114 380 L 115 381 L 115 383 L 116 384 L 116 386 L 117 387 L 117 389 L 118 390 L 118 391 L 119 392 L 119 394 L 120 395 L 120 396 L 121 397 L 121 398 L 122 399 L 122 401 L 123 402 L 123 403 L 124 404 L 124 405 L 125 406 L 125 407 L 126 408 L 126 409 L 127 410 L 127 411 L 128 412 L 128 413 L 129 414 L 129 415 L 130 416 L 130 417 L 131 418 L 131 419 L 132 420 L 132 421 L 133 422 L 133 423 L 135 425 L 135 426 L 136 427 L 136 428 L 137 429 L 137 430 L 139 432 L 139 433 L 141 435 L 141 436 L 143 438 L 143 439 L 145 441 L 145 442 L 147 444 L 147 445 L 150 448 L 150 449 L 154 453 L 154 454 L 158 458 L 158 459 L 166 467 L 166 468 L 177 479 L 178 479 L 180 481 L 179 482 L 177 482 L 176 481 L 175 481 L 174 480 L 172 480 L 171 479 L 169 479 L 168 478 L 167 478 L 166 477 L 164 477 L 163 476 L 162 476 L 161 475 L 160 475 L 159 474 L 157 474 L 156 473 L 155 473 L 154 472 L 153 472 L 152 471 L 151 471 L 150 470 L 149 470 L 148 469 L 147 469 L 146 468 L 145 468 L 144 467 L 143 467 L 141 465 L 140 465 L 139 464 L 138 464 L 137 463 L 136 463 L 134 461 L 133 461 L 132 460 L 131 460 L 129 458 L 128 458 L 127 457 L 126 457 L 124 455 L 123 455 L 121 453 L 120 453 L 117 450 L 116 450 L 113 447 L 112 447 L 110 445 L 109 445 L 104 440 L 103 440 L 97 434 L 96 434 L 76 414 L 76 413 L 71 408 L 71 407 L 66 402 L 66 401 L 63 398 L 63 397 L 61 395 L 61 394 L 58 391 L 58 390 L 56 388 L 56 387 L 54 385 L 54 384 L 53 383 L 53 382 L 51 380 L 51 379 L 49 377 L 49 376 L 48 375 L 48 374 L 47 373 L 47 372 L 45 370 L 45 369 L 44 368 L 44 367 L 43 366 Z M 417 265 L 418 264 L 494 264 L 495 265 L 495 266 L 494 267 L 494 279 L 493 280 L 493 288 L 492 289 L 492 294 L 491 295 L 491 300 L 490 301 L 490 305 L 489 306 L 489 309 L 488 310 L 488 313 L 487 314 L 487 317 L 486 318 L 486 321 L 485 322 L 485 325 L 484 326 L 484 328 L 483 329 L 483 330 L 482 331 L 482 333 L 481 334 L 481 336 L 480 337 L 480 339 L 479 340 L 479 342 L 478 343 L 478 344 L 476 346 L 473 346 L 472 347 L 467 347 L 466 348 L 461 348 L 460 349 L 455 349 L 454 350 L 450 350 L 449 351 L 444 351 L 443 352 L 438 352 L 437 353 L 432 353 L 431 354 L 426 354 L 425 355 L 421 355 L 420 356 L 415 356 L 414 357 L 409 357 L 408 358 L 405 358 L 404 357 L 404 354 L 405 353 L 405 350 L 406 349 L 406 346 L 407 345 L 407 342 L 408 341 L 408 338 L 409 337 L 409 333 L 410 332 L 410 327 L 411 326 L 411 322 L 412 321 L 412 316 L 413 315 L 413 309 L 414 308 L 414 300 L 415 299 L 415 291 L 416 290 L 416 275 L 417 274 Z M 264 265 L 265 264 L 400 264 L 401 265 L 401 272 L 400 273 L 400 290 L 399 291 L 399 298 L 398 299 L 398 306 L 397 307 L 397 314 L 396 315 L 396 319 L 395 320 L 395 325 L 394 326 L 394 330 L 393 331 L 393 335 L 392 336 L 392 340 L 391 341 L 391 344 L 390 345 L 390 347 L 389 348 L 389 351 L 388 352 L 388 355 L 387 356 L 387 359 L 386 360 L 386 361 L 385 362 L 380 362 L 379 363 L 374 363 L 373 364 L 368 364 L 367 365 L 363 365 L 362 366 L 357 366 L 356 367 L 350 367 L 349 368 L 344 368 L 343 369 L 337 369 L 336 370 L 329 370 L 328 371 L 320 371 L 319 372 L 311 372 L 310 373 L 298 373 L 297 374 L 280 374 L 279 375 L 265 375 L 264 374 Z M 110 265 L 111 264 L 246 264 L 247 265 L 247 374 L 246 375 L 232 375 L 231 374 L 214 374 L 213 373 L 201 373 L 200 372 L 192 372 L 191 371 L 183 371 L 182 370 L 175 370 L 174 369 L 168 369 L 167 368 L 162 368 L 161 367 L 155 367 L 154 366 L 149 366 L 148 365 L 144 365 L 143 364 L 138 364 L 137 363 L 132 363 L 131 362 L 126 362 L 125 361 L 125 360 L 124 359 L 124 356 L 123 355 L 123 352 L 122 351 L 122 348 L 121 347 L 121 345 L 120 344 L 120 341 L 119 340 L 119 336 L 118 335 L 118 331 L 117 330 L 117 326 L 116 325 L 116 320 L 115 319 L 115 315 L 114 314 L 114 307 L 113 306 L 113 299 L 112 298 L 112 291 L 111 290 L 111 273 L 110 272 Z M 16 265 L 17 264 L 93 264 L 94 265 L 94 274 L 95 275 L 95 290 L 96 291 L 96 299 L 97 300 L 97 308 L 98 309 L 98 315 L 99 316 L 99 321 L 100 322 L 100 326 L 101 327 L 101 332 L 102 333 L 102 337 L 103 338 L 103 341 L 104 342 L 104 345 L 105 346 L 105 349 L 106 350 L 106 353 L 107 354 L 107 357 L 106 358 L 103 358 L 102 357 L 97 357 L 96 356 L 91 356 L 90 355 L 86 355 L 85 354 L 80 354 L 79 353 L 74 353 L 73 352 L 68 352 L 67 351 L 62 351 L 61 350 L 57 350 L 56 349 L 51 349 L 50 348 L 45 348 L 44 347 L 39 347 L 38 346 L 35 346 L 33 344 L 33 343 L 32 342 L 32 340 L 31 339 L 31 337 L 30 336 L 30 334 L 29 333 L 29 331 L 28 330 L 28 329 L 27 328 L 27 326 L 26 325 L 26 322 L 25 321 L 25 318 L 24 317 L 24 314 L 23 313 L 23 310 L 22 309 L 22 306 L 21 305 L 21 301 L 20 300 L 20 295 L 19 294 L 19 289 L 18 288 L 18 280 L 17 279 L 17 267 L 16 266 Z M 404 154 L 405 153 L 408 153 L 409 154 L 414 154 L 415 155 L 420 155 L 421 156 L 425 156 L 426 157 L 431 157 L 432 158 L 437 158 L 438 159 L 443 159 L 444 160 L 449 160 L 450 161 L 454 161 L 455 162 L 460 162 L 461 163 L 466 163 L 467 164 L 472 164 L 473 165 L 476 165 L 478 167 L 478 168 L 479 169 L 479 171 L 480 172 L 480 174 L 481 175 L 481 177 L 482 178 L 482 180 L 483 181 L 483 182 L 484 183 L 484 185 L 485 186 L 485 189 L 486 190 L 486 193 L 487 194 L 487 197 L 488 198 L 488 201 L 489 202 L 489 205 L 490 206 L 490 210 L 491 211 L 491 216 L 492 217 L 492 222 L 493 223 L 493 231 L 494 232 L 494 244 L 495 245 L 495 246 L 494 247 L 418 247 L 417 246 L 417 237 L 416 236 L 416 221 L 415 220 L 415 212 L 414 211 L 414 203 L 413 202 L 413 196 L 412 195 L 412 190 L 411 189 L 411 185 L 410 184 L 410 179 L 409 178 L 409 174 L 408 173 L 408 170 L 407 169 L 407 166 L 406 165 L 406 162 L 405 161 L 405 158 L 404 157 Z M 102 154 L 103 153 L 106 153 L 107 154 L 107 157 L 106 158 L 106 161 L 105 162 L 105 165 L 104 166 L 104 169 L 103 170 L 103 173 L 102 174 L 102 178 L 101 179 L 101 184 L 100 185 L 100 189 L 99 190 L 99 195 L 98 196 L 98 202 L 97 203 L 97 211 L 96 212 L 96 220 L 95 221 L 95 236 L 94 237 L 94 246 L 93 247 L 17 247 L 16 246 L 16 245 L 17 244 L 17 232 L 18 231 L 18 223 L 19 222 L 19 217 L 20 216 L 20 211 L 21 210 L 21 206 L 22 205 L 22 202 L 23 201 L 23 198 L 24 197 L 24 194 L 25 193 L 25 190 L 26 189 L 26 186 L 27 185 L 27 183 L 28 182 L 28 181 L 29 180 L 29 178 L 30 177 L 30 175 L 31 174 L 31 172 L 32 171 L 32 169 L 33 168 L 33 167 L 35 165 L 38 165 L 39 164 L 44 164 L 45 163 L 50 163 L 51 162 L 56 162 L 57 161 L 61 161 L 62 160 L 67 160 L 68 159 L 73 159 L 74 158 L 79 158 L 80 157 L 85 157 L 86 156 L 90 156 L 91 155 L 96 155 L 97 154 Z M 264 137 L 265 136 L 279 136 L 280 137 L 297 137 L 298 138 L 310 138 L 311 139 L 319 139 L 320 140 L 328 140 L 329 141 L 336 141 L 337 142 L 343 142 L 344 143 L 349 143 L 350 144 L 356 144 L 357 145 L 362 145 L 363 146 L 367 146 L 368 147 L 373 147 L 374 148 L 379 148 L 380 149 L 385 149 L 386 150 L 386 151 L 387 152 L 387 155 L 388 156 L 388 159 L 389 160 L 389 163 L 390 164 L 390 166 L 391 167 L 391 170 L 392 171 L 392 175 L 393 176 L 393 180 L 394 181 L 394 185 L 395 186 L 395 191 L 396 192 L 396 196 L 397 197 L 397 204 L 398 205 L 398 212 L 399 213 L 399 220 L 400 221 L 400 238 L 401 239 L 401 246 L 400 247 L 265 247 L 264 246 Z M 231 137 L 232 136 L 246 136 L 247 137 L 247 246 L 246 247 L 111 247 L 110 246 L 110 239 L 111 238 L 111 221 L 112 220 L 112 213 L 113 212 L 113 205 L 114 204 L 114 197 L 115 196 L 115 192 L 116 191 L 116 186 L 117 185 L 117 181 L 118 180 L 118 176 L 119 175 L 119 171 L 120 170 L 120 167 L 121 166 L 121 164 L 122 163 L 122 160 L 123 159 L 123 156 L 124 155 L 124 152 L 125 151 L 125 150 L 126 149 L 131 149 L 132 148 L 137 148 L 138 147 L 143 147 L 144 146 L 148 146 L 149 145 L 154 145 L 155 144 L 161 144 L 162 143 L 167 143 L 168 142 L 174 142 L 175 141 L 182 141 L 183 140 L 191 140 L 192 139 L 200 139 L 201 138 L 213 138 L 214 137 Z M 331 30 L 332 29 L 334 29 L 335 30 L 336 30 L 337 31 L 339 31 L 340 32 L 342 32 L 343 33 L 344 33 L 345 34 L 347 34 L 348 35 L 349 35 L 350 36 L 351 36 L 352 37 L 354 37 L 355 38 L 356 38 L 357 39 L 358 39 L 359 40 L 360 40 L 361 41 L 362 41 L 363 42 L 364 42 L 365 43 L 366 43 L 367 44 L 368 44 L 370 46 L 371 46 L 372 47 L 373 47 L 374 48 L 375 48 L 377 50 L 378 50 L 379 51 L 380 51 L 382 53 L 383 53 L 384 54 L 385 54 L 387 56 L 388 56 L 390 58 L 391 58 L 394 61 L 395 61 L 398 64 L 399 64 L 401 66 L 402 66 L 407 71 L 408 71 L 414 77 L 415 77 L 435 97 L 435 98 L 440 103 L 440 104 L 445 109 L 445 110 L 448 113 L 448 114 L 450 116 L 450 117 L 453 120 L 453 121 L 455 123 L 455 124 L 457 126 L 457 127 L 458 128 L 458 129 L 460 131 L 460 132 L 462 134 L 462 135 L 463 136 L 463 137 L 464 138 L 464 139 L 466 141 L 466 142 L 467 143 L 467 144 L 468 145 L 468 146 L 467 147 L 463 147 L 462 146 L 457 146 L 456 145 L 451 145 L 450 144 L 446 144 L 445 143 L 440 143 L 439 142 L 434 142 L 433 141 L 428 141 L 427 140 L 422 140 L 421 139 L 417 139 L 416 138 L 411 138 L 410 137 L 405 137 L 404 136 L 399 136 L 398 135 L 398 134 L 397 133 L 397 131 L 396 130 L 396 128 L 395 127 L 395 125 L 394 124 L 394 122 L 393 121 L 393 120 L 392 119 L 392 117 L 391 116 L 391 115 L 390 114 L 390 113 L 389 112 L 389 110 L 388 109 L 388 108 L 387 107 L 387 106 L 386 105 L 386 104 L 385 103 L 385 102 L 384 101 L 384 100 L 383 99 L 383 98 L 382 97 L 382 96 L 381 95 L 381 94 L 380 93 L 380 92 L 379 91 L 379 90 L 378 89 L 378 88 L 376 86 L 376 85 L 375 84 L 375 83 L 374 82 L 374 81 L 372 79 L 372 78 L 370 76 L 370 75 L 368 73 L 368 72 L 366 70 L 366 69 L 364 67 L 364 66 L 361 63 L 361 62 L 357 58 L 357 57 L 353 53 L 353 52 L 345 44 L 345 43 L 334 32 L 333 32 Z M 176 30 L 177 29 L 179 29 L 180 30 L 178 32 L 177 32 L 166 43 L 166 44 L 158 52 L 158 53 L 154 57 L 154 58 L 150 62 L 150 63 L 147 66 L 147 67 L 145 69 L 145 70 L 143 72 L 143 73 L 141 75 L 141 76 L 139 78 L 139 79 L 137 81 L 137 82 L 136 83 L 136 84 L 135 85 L 135 86 L 133 88 L 133 89 L 132 90 L 132 91 L 131 92 L 131 93 L 130 94 L 130 95 L 129 96 L 129 97 L 128 98 L 128 99 L 127 100 L 127 101 L 126 102 L 126 103 L 125 104 L 125 105 L 124 106 L 124 107 L 123 108 L 123 109 L 122 110 L 122 112 L 121 113 L 121 114 L 120 115 L 120 116 L 119 117 L 119 119 L 118 120 L 118 121 L 117 122 L 117 124 L 116 125 L 116 127 L 115 128 L 115 130 L 114 131 L 114 133 L 113 134 L 113 135 L 112 136 L 107 136 L 106 137 L 101 137 L 100 138 L 95 138 L 94 139 L 90 139 L 89 140 L 84 140 L 83 141 L 78 141 L 77 142 L 72 142 L 71 143 L 66 143 L 65 144 L 61 144 L 60 145 L 55 145 L 54 146 L 49 146 L 48 147 L 44 147 L 43 146 L 43 145 L 44 144 L 44 143 L 45 142 L 45 141 L 47 139 L 47 138 L 48 137 L 48 136 L 49 135 L 49 134 L 51 132 L 51 131 L 53 129 L 53 128 L 54 127 L 54 126 L 56 124 L 56 123 L 58 121 L 58 120 L 61 117 L 61 116 L 63 114 L 63 113 L 66 110 L 66 109 L 71 104 L 71 103 L 76 98 L 76 97 L 96 77 L 97 77 L 103 71 L 104 71 L 109 66 L 110 66 L 112 64 L 113 64 L 116 61 L 117 61 L 120 58 L 121 58 L 123 56 L 124 56 L 126 54 L 127 54 L 128 53 L 129 53 L 131 51 L 132 51 L 133 50 L 134 50 L 136 48 L 137 48 L 138 47 L 139 47 L 140 46 L 141 46 L 143 44 L 144 44 L 145 43 L 146 43 L 147 42 L 148 42 L 149 41 L 150 41 L 151 40 L 152 40 L 153 39 L 154 39 L 155 38 L 156 38 L 157 37 L 159 37 L 160 36 L 161 36 L 162 35 L 163 35 L 164 34 L 166 34 L 167 33 L 168 33 L 169 32 L 171 32 L 172 31 L 174 31 L 175 30 Z M 264 18 L 265 17 L 270 17 L 271 18 L 275 18 L 276 19 L 279 19 L 280 20 L 283 20 L 284 21 L 285 21 L 286 22 L 288 22 L 289 23 L 291 23 L 292 24 L 293 24 L 294 25 L 295 25 L 296 26 L 297 26 L 298 27 L 299 27 L 300 28 L 301 28 L 302 29 L 303 29 L 305 31 L 306 31 L 307 32 L 308 32 L 310 34 L 311 34 L 314 37 L 315 37 L 318 40 L 319 40 L 324 45 L 325 45 L 337 57 L 337 58 L 343 64 L 343 65 L 347 69 L 347 70 L 349 72 L 349 73 L 352 76 L 352 77 L 354 79 L 354 80 L 356 82 L 356 83 L 357 84 L 357 85 L 359 87 L 359 88 L 360 89 L 360 90 L 362 92 L 362 93 L 363 94 L 363 95 L 364 96 L 364 97 L 365 98 L 365 99 L 366 100 L 366 101 L 367 102 L 367 103 L 368 104 L 368 105 L 370 107 L 370 109 L 371 110 L 371 111 L 372 112 L 372 113 L 373 114 L 373 115 L 374 116 L 374 117 L 375 118 L 375 120 L 376 121 L 376 122 L 377 123 L 377 125 L 378 126 L 378 127 L 379 128 L 379 130 L 380 131 L 379 132 L 376 132 L 375 131 L 370 131 L 369 130 L 364 130 L 363 129 L 359 129 L 358 128 L 352 128 L 351 127 L 345 127 L 344 126 L 339 126 L 338 125 L 331 125 L 330 124 L 322 124 L 321 123 L 313 123 L 312 122 L 299 122 L 298 121 L 282 121 L 281 120 L 265 120 L 264 119 Z M 240 18 L 241 17 L 246 17 L 247 18 L 247 119 L 246 120 L 230 120 L 229 121 L 213 121 L 212 122 L 199 122 L 198 123 L 190 123 L 189 124 L 181 124 L 180 125 L 173 125 L 172 126 L 167 126 L 166 127 L 160 127 L 159 128 L 153 128 L 152 129 L 147 129 L 146 130 L 142 130 L 141 131 L 136 131 L 135 132 L 132 132 L 131 131 L 132 130 L 132 128 L 133 127 L 133 126 L 134 125 L 134 123 L 135 122 L 135 121 L 136 120 L 136 118 L 137 117 L 137 116 L 138 115 L 138 114 L 139 113 L 139 112 L 140 111 L 140 110 L 141 109 L 141 107 L 142 106 L 142 105 L 143 104 L 143 103 L 145 101 L 145 100 L 146 99 L 146 98 L 147 97 L 147 96 L 148 95 L 148 94 L 149 93 L 149 92 L 151 90 L 151 89 L 152 88 L 152 87 L 154 85 L 154 84 L 155 83 L 155 82 L 157 80 L 157 79 L 159 77 L 159 76 L 162 73 L 162 72 L 164 70 L 164 69 L 168 65 L 168 64 L 174 58 L 174 57 L 187 44 L 188 44 L 192 40 L 193 40 L 197 36 L 198 36 L 200 34 L 201 34 L 203 32 L 204 32 L 205 31 L 206 31 L 208 29 L 209 29 L 210 28 L 211 28 L 212 27 L 213 27 L 214 26 L 215 26 L 216 25 L 217 25 L 218 24 L 219 24 L 220 23 L 222 23 L 223 22 L 225 22 L 226 21 L 227 21 L 228 20 L 231 20 L 232 19 L 235 19 L 236 18 Z" fill="#000" fill-rule="evenodd"/>
</svg>